<svg width="14" height="8" viewBox="0 0 14 8" fill="none" xmlns="http://www.w3.org/2000/svg">
  <path d="M7.40915 7.27523L7.40913 7.27525C7.35543 7.329 7.29167 7.37165 7.22149 7.40074C7.15131 7.42983 7.07608 7.44481 7.0001 7.44481C6.92413 7.44481 6.8489 7.42983 6.77872 7.40074C6.70853 7.37165 6.64477 7.329 6.59108 7.27525L6.59106 7.27523L0.341062 1.02523C0.232577 0.91675 0.171631 0.769613 0.171631 0.616192C0.171631 0.462772 0.232577 0.315635 0.341062 0.20715C0.449546 0.0986655 0.596683 0.0377197 0.750103 0.0377197C0.903523 0.0377197 1.05066 0.0986646 1.15914 0.207148C1.15914 0.207149 1.15914 0.207149 1.15915 0.20715L6.96696 6.01574L7.0001 6.04889L7.03325 6.01574L12.8411 0.207148C12.8948 0.153434 12.9585 0.110824 13.0287 0.081753C13.0989 0.0526821 13.1741 0.0377197 13.2501 0.0377197C13.3261 0.0377197 13.4013 0.0526821 13.4715 0.081753C13.5417 0.110824 13.6054 0.153434 13.6591 0.20715C13.7129 0.260866 13.7555 0.324636 13.7845 0.39482C13.8136 0.465004 13.8286 0.540226 13.8286 0.616192C13.8286 0.692158 13.8136 0.76738 13.7845 0.837564C13.7555 0.907748 13.7129 0.971518 13.6591 1.02523L7.40915 7.27523Z" fill="#074BCC" stroke="#94A3B8" stroke-width="0.09375"/>
</svg>
