<svg width="27" height="24" viewBox="0 0 27 24" fill="none" xmlns="http://www.w3.org/2000/svg">
  <path d="M23.5 3.11621H20.035L18.3312 0.561211C18.24 0.4244 18.1164 0.312215 17.9714 0.234593C17.8264 0.156971 17.6645 0.11631 17.5 0.116211H9.5C9.33554 0.11631 9.17363 0.156971 9.02864 0.234593C8.88364 0.312215 8.76003 0.4244 8.66875 0.561211L6.96375 3.11621H3.5C2.70435 3.11621 1.94129 3.43228 1.37868 3.99489C0.816071 4.5575 0.5 5.32056 0.5 6.11621V20.1162C0.5 20.9119 0.816071 21.6749 1.37868 22.2375C1.94129 22.8001 2.70435 23.1162 3.5 23.1162H23.5C24.2956 23.1162 25.0587 22.8001 25.6213 22.2375C26.1839 21.6749 26.5 20.9119 26.5 20.1162V6.11621C26.5 5.32056 26.1839 4.5575 25.6213 3.99489C25.0587 3.43228 24.2956 3.11621 23.5 3.11621ZM24.5 20.1162C24.5 20.3814 24.3946 20.6358 24.2071 20.8233C24.0196 21.0109 23.7652 21.1162 23.5 21.1162H3.5C3.23478 21.1162 2.98043 21.0109 2.79289 20.8233C2.60536 20.6358 2.5 20.3814 2.5 20.1162V6.11621C2.5 5.85099 2.60536 5.59664 2.79289 5.4091C2.98043 5.22157 3.23478 5.11621 3.5 5.11621H7.5C7.66468 5.11632 7.82683 5.07576 7.97206 4.99812C8.11729 4.92049 8.2411 4.8082 8.3325 4.67121L10.035 2.11621H16.9638L18.6675 4.67121C18.7589 4.8082 18.8827 4.92049 19.0279 4.99812C19.1732 5.07576 19.3353 5.11632 19.5 5.11621H23.5C23.7652 5.11621 24.0196 5.22157 24.2071 5.4091C24.3946 5.59664 24.5 5.85099 24.5 6.11621V20.1162ZM13.5 7.11621C12.4122 7.11621 11.3488 7.43878 10.4444 8.04313C9.53989 8.64748 8.83494 9.50646 8.41866 10.5115C8.00238 11.5164 7.89346 12.6223 8.10568 13.6892C8.3179 14.7561 8.84172 15.7361 9.61091 16.5053C10.3801 17.2745 11.3601 17.7983 12.427 18.0105C13.4939 18.2227 14.5998 18.1138 15.6048 17.6975C16.6098 17.2813 17.4687 16.5763 18.0731 15.6718C18.6774 14.7674 19 13.704 19 12.6162C18.9983 11.158 18.4184 9.76004 17.3873 8.72895C16.3562 7.69786 14.9582 7.11787 13.5 7.11621ZM13.5 16.1162C12.8078 16.1162 12.1311 15.9109 11.5555 15.5264C10.9799 15.1418 10.5313 14.5951 10.2664 13.9556C10.0015 13.3161 9.9322 12.6123 10.0673 11.9334C10.2023 11.2545 10.5356 10.6308 11.0251 10.1413C11.5146 9.65185 12.1383 9.31851 12.8172 9.18346C13.4961 9.04841 14.1999 9.11773 14.8394 9.38263C15.4789 9.64754 16.0256 10.0961 16.4101 10.6717C16.7947 11.2473 17 11.924 17 12.6162C17 13.5445 16.6313 14.4347 15.9749 15.0911C15.3185 15.7475 14.4283 16.1162 13.5 16.1162Z" fill="#074BCC"/>
</svg>
