<svg width="31" height="23" viewBox="0 0 31 23" fill="none" xmlns="http://www.w3.org/2000/svg">
  <path d="M21.7925 15.8237L19.5 13.53V21.1162C19.5 21.3814 19.3947 21.6358 19.2071 21.8233C19.0196 22.0109 18.7652 22.1162 18.5 22.1162C18.2348 22.1162 17.9804 22.0109 17.7929 21.8233C17.6054 21.6358 17.5 21.3814 17.5 21.1162V13.53L15.2075 15.8237C15.1146 15.9166 15.0043 15.9903 14.8829 16.0406C14.7615 16.0909 14.6314 16.1168 14.5 16.1168C14.3686 16.1168 14.2385 16.0909 14.1171 16.0406C13.9957 15.9903 13.8854 15.9166 13.7925 15.8237C13.6996 15.7308 13.6259 15.6205 13.5756 15.4991C13.5253 15.3777 13.4995 15.2476 13.4995 15.1162C13.4995 14.9848 13.5253 14.8547 13.5756 14.7333C13.6259 14.6119 13.6996 14.5016 13.7925 14.4087L17.7925 10.4087C17.8854 10.3157 17.9957 10.242 18.1171 10.1917C18.2385 10.1413 18.3686 10.1154 18.5 10.1154C18.6314 10.1154 18.7615 10.1413 18.8829 10.1917C19.0043 10.242 19.1146 10.3157 19.2075 10.4087L23.2075 14.4087C23.3004 14.5016 23.3741 14.6119 23.4244 14.7333C23.4747 14.8547 23.5006 14.9848 23.5006 15.1162C23.5006 15.2476 23.4747 15.3777 23.4244 15.4991C23.3741 15.6205 23.3004 15.7308 23.2075 15.8237C23.1146 15.9166 23.0043 15.9903 22.8829 16.0406C22.7615 16.0909 22.6314 16.1168 22.5 16.1168C22.3686 16.1168 22.2385 16.0909 22.1171 16.0406C21.9957 15.9903 21.8854 15.9166 21.7925 15.8237ZM19.5 0.116211C17.457 0.117752 15.4546 0.687732 13.717 1.76238C11.9795 2.83703 10.5752 4.37396 9.66126 6.20121C8.57316 6.04132 7.46378 6.10749 6.40241 6.3956C5.34104 6.68371 4.35047 7.18757 3.49257 7.8757C2.63467 8.56383 1.92787 9.42146 1.41631 10.395C0.904747 11.3686 0.599415 12.4372 0.519381 13.534C0.439347 14.6309 0.586332 15.7325 0.951154 16.77C1.31598 17.8075 1.8908 18.7586 2.63972 19.564C3.38865 20.3694 4.29559 21.0117 5.3039 21.4508C6.3122 21.89 7.40023 22.1165 8.50001 22.1162H13.5C13.7652 22.1162 14.0196 22.0109 14.2071 21.8233C14.3946 21.6358 14.5 21.3814 14.5 21.1162C14.5 20.851 14.3946 20.5966 14.2071 20.4091C14.0196 20.2216 13.7652 20.1162 13.5 20.1162H8.50001C6.90871 20.1162 5.38258 19.4841 4.25737 18.3589C3.13215 17.2336 2.50001 15.7075 2.50001 14.1162C2.50001 12.5249 3.13215 10.9988 4.25737 9.87357C5.38258 8.74835 6.90871 8.11621 8.50001 8.11621C8.63751 8.11621 8.77501 8.11621 8.91126 8.13121C8.6379 9.10264 8.49952 10.1071 8.50001 11.1162C8.50001 11.3814 8.60536 11.6358 8.7929 11.8233C8.98044 12.0109 9.23479 12.1162 9.50001 12.1162C9.76522 12.1162 10.0196 12.0109 10.2071 11.8233C10.3946 11.6358 10.5 11.3814 10.5 11.1162C10.5003 9.49366 10.9391 7.90135 11.7702 6.5078C12.6013 5.11424 13.7936 3.97127 15.221 3.19984C16.6485 2.42842 18.2579 2.05723 19.879 2.12556C21.5001 2.19389 23.0726 2.6992 24.4301 3.58801C25.7875 4.47682 26.8795 5.71607 27.5903 7.17462C28.3012 8.63317 28.6045 10.2568 28.4682 11.8736C28.3319 13.4904 27.7611 15.0403 26.8161 16.3593C25.8711 17.6782 24.5871 18.7172 23.1 19.3662C22.8888 19.4577 22.7157 19.6193 22.6098 19.8237C22.504 20.028 22.4718 20.2626 22.5188 20.4879C22.5658 20.7132 22.6891 20.9154 22.8678 21.0604C23.0466 21.2054 23.2699 21.2842 23.5 21.2837C23.6378 21.2836 23.7741 21.2546 23.9 21.1987C26.2167 20.1882 28.1147 18.4106 29.2748 16.1651C30.4349 13.9196 30.7863 11.3431 30.2699 8.86889C29.7535 6.39471 28.4009 4.17383 26.4395 2.57979C24.478 0.985738 22.0275 0.115772 19.5 0.116211Z" fill="#074BCC"/>
</svg>
