<svg width="25" height="25" viewBox="0 0 25 25" fill="none" xmlns="http://www.w3.org/2000/svg">
  <path d="M8.93018 12.2953H15.9302" stroke="#A0A0A0" stroke-width="1.5" stroke-miterlimit="10" stroke-linecap="round" stroke-linejoin="round"/>
  <path d="M8.93018 16.2952H13.3102" stroke="#A0A0A0" stroke-width="1.5" stroke-miterlimit="10" stroke-linecap="round" stroke-linejoin="round"/>
  <path d="M10.9302 6.09521H14.9302C16.9302 6.09521 16.9302 5.09521 16.9302 4.09521C16.9302 2.09521 15.9302 2.09521 14.9302 2.09521H10.9302C9.93018 2.09521 8.93018 2.09521 8.93018 4.09521C8.93018 6.09521 9.93018 6.09521 10.9302 6.09521Z" stroke="#A0A0A0" stroke-width="1.5" stroke-miterlimit="10" stroke-linecap="round" stroke-linejoin="round"/>
  <path d="M16.9302 4.11523C20.2602 4.29523 21.9302 5.52523 21.9302 10.0952V16.0952C21.9302 20.0952 20.9302 22.0952 15.9302 22.0952H9.93018C4.93018 22.0952 3.93018 20.0952 3.93018 16.0952V10.0952C3.93018 5.53523 5.60018 4.29523 8.93018 4.11523" stroke="#A0A0A0" stroke-width="1.5" stroke-miterlimit="10" stroke-linecap="round" stroke-linejoin="round"/>
</svg>
