<svg width="24" height="21" viewBox="0 0 24 21" fill="none" xmlns="http://www.w3.org/2000/svg">
  <path d="M18 4.47119C18 4.20597 18.1054 3.95162 18.2929 3.76408C18.4804 3.57655 18.7348 3.47119 19 3.47119H23C23.2652 3.47119 23.5196 3.57655 23.7071 3.76408C23.8946 3.95162 24 4.20597 24 4.47119C24 4.73641 23.8946 4.99076 23.7071 5.1783C23.5196 5.36583 23.2652 5.47119 23 5.47119H19C18.7348 5.47119 18.4804 5.36583 18.2929 5.1783C18.1054 4.99076 18 4.73641 18 4.47119ZM1 5.47119H14V7.47119C14 7.73641 14.1054 7.99076 14.2929 8.1783C14.4804 8.36583 14.7348 8.47119 15 8.47119C15.2652 8.47119 15.5196 8.36583 15.7071 8.1783C15.8946 7.99076 16 7.73641 16 7.47119V1.47119C16 1.20597 15.8946 0.951621 15.7071 0.764085C15.5196 0.576548 15.2652 0.471191 15 0.471191C14.7348 0.471191 14.4804 0.576548 14.2929 0.764085C14.1054 0.951621 14 1.20597 14 1.47119V3.47119H1C0.734784 3.47119 0.48043 3.57655 0.292893 3.76408C0.105357 3.95162 0 4.20597 0 4.47119C0 4.73641 0.105357 4.99076 0.292893 5.1783C0.48043 5.36583 0.734784 5.47119 1 5.47119ZM23 15.4712H11C10.7348 15.4712 10.4804 15.5765 10.2929 15.7641C10.1054 15.9516 10 16.206 10 16.4712C10 16.7364 10.1054 16.9908 10.2929 17.1783C10.4804 17.3658 10.7348 17.4712 11 17.4712H23C23.2652 17.4712 23.5196 17.3658 23.7071 17.1783C23.8946 16.9908 24 16.7364 24 16.4712C24 16.206 23.8946 15.9516 23.7071 15.7641C23.5196 15.5765 23.2652 15.4712 23 15.4712ZM7 12.4712C6.73478 12.4712 6.48043 12.5765 6.29289 12.7641C6.10536 12.9516 6 13.206 6 13.4712V15.4712H1C0.734784 15.4712 0.48043 15.5765 0.292893 15.7641C0.105357 15.9516 0 16.206 0 16.4712C0 16.7364 0.105357 16.9908 0.292893 17.1783C0.48043 17.3658 0.734784 17.4712 1 17.4712H6V19.4712C6 19.7364 6.10536 19.9908 6.29289 20.1783C6.48043 20.3658 6.73478 20.4712 7 20.4712C7.26522 20.4712 7.51957 20.3658 7.70711 20.1783C7.89464 19.9908 8 19.7364 8 19.4712V13.4712C8 13.206 7.89464 12.9516 7.70711 12.7641C7.51957 12.5765 7.26522 12.4712 7 12.4712Z" fill="white"/>
</svg>
