<svg width="24" height="25" viewBox="0 0 24 25" fill="none" xmlns="http://www.w3.org/2000/svg">
  <g clip-path="url(#clip0_46_591)">
    <path d="M22.6493 16.93L13.2518 9.88L15.4512 8.23001C15.5445 8.16024 15.6203 8.0697 15.6725 7.96555C15.7248 7.8614 15.752 7.74652 15.7521 7.63C15.7521 6.63544 15.357 5.68162 14.6538 4.97835C13.9505 4.27509 12.9967 3.88 12.0021 3.88C11.0076 3.88 10.0537 4.27509 9.35048 4.97835C8.64722 5.68162 8.25214 6.63544 8.25214 7.63C8.25214 7.82892 8.33115 8.01968 8.47181 8.16033C8.61246 8.30099 8.80322 8.38 9.00214 8.38C9.20105 8.38 9.39181 8.30099 9.53246 8.16033C9.67312 8.01968 9.75214 7.82892 9.75214 7.63C9.75365 7.06509 9.96762 6.52141 10.3515 6.10699C10.7354 5.69256 11.2612 5.43772 11.8243 5.39308C12.3875 5.34845 12.9468 5.51728 13.3912 5.86605C13.8356 6.21483 14.1326 6.71801 14.2231 7.27563L11.5653 9.26969L11.539 9.28938L1.35495 16.93C1.10328 17.1188 0.917324 17.3819 0.823384 17.6821C0.729444 17.9823 0.732274 18.3045 0.831475 18.603C0.930675 18.9015 1.12122 19.1613 1.37617 19.3456C1.63111 19.5299 1.93755 19.6294 2.25213 19.63H21.7521C22.067 19.63 22.3738 19.5309 22.6292 19.3469C22.8846 19.1628 23.0756 18.903 23.1752 18.6043C23.2747 18.3057 23.2778 17.9833 23.1839 17.6828C23.09 17.3823 22.904 17.1189 22.6521 16.93H22.6493ZM21.7521 18.13H2.25213L12.0021 10.8175L21.7521 18.13Z" fill="#A0A0A0"/>
  </g>
  <defs>
    <clipPath id="clip0_46_591">
      <rect width="24" height="24" fill="white" transform="translate(0.00213623 0.880005)"/>
    </clipPath>
  </defs>
</svg>
