<svg width="22" height="22" viewBox="0 0 22 22" fill="none" xmlns="http://www.w3.org/2000/svg">
  <path d="M6.71935 5.53061C6.64962 5.46095 6.5943 5.37823 6.55656 5.28718C6.51882 5.19614 6.49939 5.09854 6.49939 4.99998C6.49939 4.90142 6.51882 4.80382 6.55656 4.71277C6.5943 4.62173 6.64962 4.53901 6.71935 4.46935L10.4694 0.719355C10.539 0.649622 10.6217 0.594303 10.7128 0.55656C10.8038 0.518817 10.9014 0.49939 11 0.49939C11.0985 0.49939 11.1961 0.518817 11.2872 0.55656C11.3782 0.594303 11.4609 0.649622 11.5306 0.719355L15.2806 4.46935C15.3503 4.53901 15.4057 4.62173 15.4434 4.71277C15.4811 4.80382 15.5006 4.90142 15.5006 4.99998C15.5006 5.09854 15.4811 5.19614 15.4434 5.28718C15.4057 5.37823 15.3503 5.46095 15.2806 5.53061L11.5306 9.28061C11.4609 9.35034 11.3782 9.40566 11.2872 9.4434C11.1961 9.48114 11.0985 9.50057 11 9.50057C10.9014 9.50057 10.8038 9.48114 10.7128 9.4434C10.6217 9.40566 10.539 9.35034 10.4694 9.28061L6.71935 5.53061ZM11.5306 12.7194C11.4609 12.6496 11.3782 12.5943 11.2872 12.5566C11.1961 12.5188 11.0985 12.4994 11 12.4994C10.9014 12.4994 10.8038 12.5188 10.7128 12.5566C10.6217 12.5943 10.539 12.6496 10.4694 12.7194L6.71935 16.4694C6.64962 16.539 6.5943 16.6217 6.55656 16.7128C6.51882 16.8038 6.49939 16.9014 6.49939 17C6.49939 17.0985 6.51882 17.1961 6.55656 17.2872C6.5943 17.3782 6.64962 17.4609 6.71935 17.5306L10.4694 21.2806C10.539 21.3503 10.6217 21.4057 10.7128 21.4434C10.8038 21.4811 10.9014 21.5006 11 21.5006C11.0985 21.5006 11.1961 21.4811 11.2872 21.4434C11.3782 21.4057 11.4609 21.3503 11.5306 21.2806L15.2806 17.5306C15.3503 17.4609 15.4057 17.3782 15.4434 17.2872C15.4811 17.1961 15.5006 17.0985 15.5006 17C15.5006 16.9014 15.4811 16.8038 15.4434 16.7128C15.4057 16.6217 15.3503 16.539 15.2806 16.4694L11.5306 12.7194ZM21.2806 10.4694L17.5306 6.71935C17.4609 6.64962 17.3782 6.5943 17.2872 6.55656C17.1961 6.51882 17.0985 6.49939 17 6.49939C16.9014 6.49939 16.8038 6.51882 16.7128 6.55656C16.6217 6.5943 16.539 6.64962 16.4694 6.71935L12.7194 10.4694C12.6496 10.539 12.5943 10.6217 12.5566 10.7128C12.5188 10.8038 12.4994 10.9014 12.4994 11C12.4994 11.0985 12.5188 11.1961 12.5566 11.2872C12.5943 11.3782 12.6496 11.4609 12.7194 11.5306L16.4694 15.2806C16.539 15.3503 16.6217 15.4057 16.7128 15.4434C16.8038 15.4811 16.9014 15.5006 17 15.5006C17.0985 15.5006 17.1961 15.4811 17.2872 15.4434C17.3782 15.4057 17.4609 15.3503 17.5306 15.2806L21.2806 11.5306C21.3503 11.4609 21.4057 11.3782 21.4434 11.2872C21.4811 11.1961 21.5006 11.0985 21.5006 11C21.5006 10.9014 21.4811 10.8038 21.4434 10.7128C21.4057 10.6217 21.3503 10.539 21.2806 10.4694ZM9.28061 10.4694L5.53061 6.71935C5.46095 6.64962 5.37823 6.5943 5.28718 6.55656C5.19614 6.51882 5.09854 6.49939 4.99998 6.49939C4.90142 6.49939 4.80382 6.51882 4.71277 6.55656C4.62173 6.5943 4.53901 6.64962 4.46935 6.71935L0.719355 10.4694C0.649622 10.539 0.594303 10.6217 0.55656 10.7128C0.518817 10.8038 0.49939 10.9014 0.49939 11C0.49939 11.0985 0.518817 11.1961 0.55656 11.2872C0.594303 11.3782 0.649622 11.4609 0.719355 11.5306L4.46935 15.2806C4.53901 15.3503 4.62173 15.4057 4.71277 15.4434C4.80382 15.4811 4.90142 15.5006 4.99998 15.5006C5.09854 15.5006 5.19614 15.4811 5.28718 15.4434C5.37823 15.4057 5.46095 15.3503 5.53061 15.2806L9.28061 11.5306C9.35034 11.4609 9.40566 11.3782 9.4434 11.2872C9.48114 11.1961 9.50057 11.0985 9.50057 11C9.50057 10.9014 9.48114 10.8038 9.4434 10.7128C9.40566 10.6217 9.35034 10.539 9.28061 10.4694Z" fill="#074BCC"/>
</svg>
