<svg width="26" height="26" viewBox="0 0 26 26" fill="none" xmlns="http://www.w3.org/2000/svg">
  <path d="M13 0C10.4288 0 7.91543 0.762437 5.77759 2.1909C3.63975 3.61935 1.97351 5.64968 0.989572 8.02512C0.0056327 10.4006 -0.251811 13.0144 0.249797 15.5362C0.751405 18.0579 1.98953 20.3743 3.80762 22.1924C5.6257 24.0105 7.94208 25.2486 10.4638 25.7502C12.9856 26.2518 15.5995 25.9944 17.9749 25.0104C20.3503 24.0265 22.3807 22.3603 23.8091 20.2224C25.2376 18.0846 26 15.5712 26 13C26 9.55219 24.6304 6.24558 22.1924 3.80761C19.7544 1.36964 16.4478 0 13 0ZM12 5C12 4.73478 12.1054 4.48043 12.2929 4.29289C12.4804 4.10536 12.7348 4 13 4C13.2652 4 13.5196 4.10536 13.7071 4.29289C13.8946 4.48043 14 4.73478 14 5V13C14 13.2652 13.8946 13.5196 13.7071 13.7071C13.5196 13.8946 13.2652 14 13 14C12.7348 14 12.4804 13.8946 12.2929 13.7071C12.1054 13.5196 12 13.2652 12 13V5ZM13 23C10.8545 23.0002 8.76585 22.3104 7.0425 21.0324C5.31916 19.7545 4.05251 17.9562 3.42967 15.9031C2.80682 13.85 2.86079 11.651 3.58362 9.63095C4.30644 7.61089 5.65979 5.87687 7.44376 4.685C7.55272 4.60794 7.67602 4.55347 7.80637 4.5248C7.93672 4.49613 8.07148 4.49385 8.20273 4.51808C8.33398 4.54232 8.45904 4.59258 8.57056 4.6659C8.68208 4.73923 8.77779 4.83414 8.85205 4.94503C8.92632 5.05592 8.97763 5.18056 9.00297 5.3116C9.02831 5.44264 9.02716 5.57742 8.99959 5.70801C8.97203 5.83859 8.9186 5.96234 8.84246 6.07195C8.76632 6.18157 8.669 6.27483 8.55626 6.34625C7.12903 7.29964 6.04627 8.68676 5.4679 10.3027C4.88953 11.9187 4.84621 13.6779 5.34434 15.3204C5.84248 16.9628 6.85565 18.4016 8.23421 19.4241C9.61278 20.4465 11.2836 20.9985 13 20.9985C14.7164 20.9985 16.3872 20.4465 17.7658 19.4241C19.1444 18.4016 20.1575 16.9628 20.6557 15.3204C21.1538 13.6779 21.1105 11.9187 20.5321 10.3027C19.9537 8.68676 18.871 7.29964 17.4438 6.34625C17.331 6.27483 17.2337 6.18157 17.1576 6.07195C17.0814 5.96234 17.028 5.83859 17.0004 5.70801C16.9729 5.57742 16.9717 5.44264 16.997 5.3116C17.0224 5.18056 17.0737 5.05592 17.148 4.94503C17.2222 4.83414 17.3179 4.73923 17.4295 4.6659C17.541 4.59258 17.666 4.54232 17.7973 4.51808C17.9285 4.49385 18.0633 4.49613 18.1936 4.5248C18.324 4.55347 18.4473 4.60794 18.5563 4.685C20.3402 5.87687 21.6936 7.61089 22.4164 9.63095C23.1392 11.651 23.1932 13.85 22.5703 15.9031C21.9475 17.9562 20.6809 19.7545 18.9575 21.0324C17.2342 22.3104 15.1455 23.0002 13 23Z" fill="#074BCC"/>
</svg>
