<svg width="20" height="20" viewBox="0 0 20 20" fill="none" xmlns="http://www.w3.org/2000/svg">
  <path d="M10 0.130005C8.07164 0.130005 6.18657 0.701832 4.58319 1.77318C2.97982 2.84452 1.73013 4.36726 0.992179 6.14884C0.254225 7.93042 0.061142 9.89082 0.437348 11.7821C0.813554 13.6735 1.74215 15.4107 3.10571 16.7743C4.46928 18.1379 6.20656 19.0665 8.09787 19.4427C9.98919 19.8189 11.9496 19.6258 13.7312 18.8878C15.5127 18.1499 17.0355 16.9002 18.1068 15.2968C19.1782 13.6934 19.75 11.8084 19.75 9.88C19.7473 7.29498 18.7192 4.81662 16.8913 2.98873C15.0634 1.16084 12.585 0.132735 10 0.130005ZM10 18.13C8.36831 18.13 6.77326 17.6462 5.41655 16.7396C4.05984 15.8331 3.00242 14.5446 2.378 13.0371C1.75358 11.5297 1.5902 9.87085 1.90853 8.27051C2.22685 6.67017 3.01259 5.20016 4.16637 4.04637C5.32016 2.89259 6.79017 2.10685 8.39051 1.78853C9.99085 1.4702 11.6497 1.63358 13.1571 2.258C14.6646 2.88242 15.9531 3.93984 16.8596 5.29655C17.7661 6.65326 18.25 8.24831 18.25 9.88C18.2475 12.0673 17.3775 14.1643 15.8309 15.7109C14.2843 17.2575 12.1873 18.1275 10 18.13ZM11.125 9.88C11.125 10.1025 11.059 10.32 10.9354 10.505C10.8118 10.69 10.6361 10.8342 10.4305 10.9194C10.225 11.0045 9.99876 11.0268 9.78053 10.9834C9.5623 10.94 9.36184 10.8328 9.20451 10.6755C9.04718 10.5182 8.94003 10.3177 8.89662 10.0995C8.85321 9.88125 8.87549 9.65505 8.96064 9.44949C9.04579 9.24392 9.18998 9.06822 9.37499 8.9446C9.55999 8.82098 9.7775 8.755 10 8.755C10.2984 8.755 10.5845 8.87353 10.7955 9.08451C11.0065 9.29549 11.125 9.58164 11.125 9.88ZM15.25 9.88C15.25 10.1025 15.184 10.32 15.0604 10.505C14.9368 10.69 14.7611 10.8342 14.5555 10.9194C14.35 11.0045 14.1238 11.0268 13.9055 10.9834C13.6873 10.94 13.4868 10.8328 13.3295 10.6755C13.1722 10.5182 13.065 10.3177 13.0216 10.0995C12.9782 9.88125 13.0005 9.65505 13.0856 9.44949C13.1708 9.24392 13.315 9.06822 13.5 8.9446C13.685 8.82098 13.9025 8.755 14.125 8.755C14.4234 8.755 14.7095 8.87353 14.9205 9.08451C15.1315 9.29549 15.25 9.58164 15.25 9.88ZM7 9.88C7 10.1025 6.93402 10.32 6.81041 10.505C6.68679 10.69 6.51109 10.8342 6.30552 10.9194C6.09996 11.0045 5.87376 11.0268 5.65553 10.9834C5.4373 10.94 5.23684 10.8328 5.07951 10.6755C4.92217 10.5182 4.81503 10.3177 4.77162 10.0995C4.72821 9.88125 4.75049 9.65505 4.83564 9.44949C4.92079 9.24392 5.06498 9.06822 5.24999 8.9446C5.43499 8.82098 5.6525 8.755 5.875 8.755C6.17337 8.755 6.45952 8.87353 6.6705 9.08451C6.88148 9.29549 7 9.58164 7 9.88Z" fill="#A0A0A0"/>
</svg>
