<svg width="23" height="25" viewBox="0 0 23 25" fill="none" xmlns="http://www.w3.org/2000/svg">
  <path d="M21.8436 18.0629C21.2144 16.9791 20.2791 13.9124 20.2791 9.90693C20.2791 7.50147 19.3235 5.19454 17.6226 3.49363C15.9217 1.79272 13.6148 0.837158 11.2093 0.837158C8.80386 0.837158 6.49693 1.79272 4.79602 3.49363C3.09511 5.19454 2.13954 7.50147 2.13954 9.90693C2.13954 13.9135 1.20309 16.9791 0.573875 18.0629C0.413193 18.3385 0.32801 18.6515 0.326915 18.9705C0.32582 19.2894 0.408852 19.6031 0.567638 19.8797C0.726424 20.1563 0.955349 20.3862 1.23133 20.5461C1.5073 20.7061 1.82057 20.7904 2.13954 20.7906H6.76626C6.97551 21.8146 7.532 22.7348 8.3416 23.3957C9.1512 24.0566 10.1642 24.4175 11.2093 24.4175C12.2544 24.4175 13.2674 24.0566 14.077 23.3957C14.8866 22.7348 15.4431 21.8146 15.6524 20.7906H20.2791C20.598 20.7902 20.9111 20.7057 21.1869 20.5457C21.4627 20.3857 21.6915 20.1558 21.8501 19.8792C22.0088 19.6026 22.0917 19.2891 22.0906 18.9702C22.0894 18.6513 22.0042 18.3384 21.8436 18.0629ZM11.2093 22.6046C10.6468 22.6044 10.0981 22.4299 9.63888 22.1051C9.17963 21.7802 8.83234 21.321 8.64483 20.7906H13.7738C13.5863 21.321 13.239 21.7802 12.7797 22.1051C12.3205 22.4299 11.7718 22.6044 11.2093 22.6046Z" fill="#242424"/>
</svg>
