<svg width="22" height="19" viewBox="0 0 22 19" fill="none" xmlns="http://www.w3.org/2000/svg">
  <path d="M19.1253 3.8894H17.75V0.889404C17.75 0.690492 17.671 0.499727 17.5303 0.359074C17.3897 0.218422 17.1989 0.139404 17 0.139404H5C4.80109 0.139404 4.61032 0.218422 4.46967 0.359074C4.32902 0.499727 4.25 0.690492 4.25 0.889404V3.8894H2.87469C1.565 3.8894 0.5 4.89909 0.5 6.1394V13.6394C0.5 13.8383 0.579018 14.0291 0.71967 14.1697C0.860322 14.3104 1.05109 14.3894 1.25 14.3894H4.25V17.3894C4.25 17.5883 4.32902 17.7791 4.46967 17.9197C4.61032 18.0604 4.80109 18.1394 5 18.1394H17C17.1989 18.1394 17.3897 18.0604 17.5303 17.9197C17.671 17.7791 17.75 17.5883 17.75 17.3894V14.3894H20.75C20.9489 14.3894 21.1397 14.3104 21.2803 14.1697C21.421 14.0291 21.5 13.8383 21.5 13.6394V6.1394C21.5 4.89909 20.435 3.8894 19.1253 3.8894ZM5.75 1.6394H16.25V3.8894H5.75V1.6394ZM16.25 16.6394H5.75V12.1394H16.25V16.6394ZM20 12.8894H17.75V11.3894C17.75 11.1905 17.671 10.9997 17.5303 10.8591C17.3897 10.7184 17.1989 10.6394 17 10.6394H5C4.80109 10.6394 4.61032 10.7184 4.46967 10.8591C4.32902 10.9997 4.25 11.1905 4.25 11.3894V12.8894H2V6.1394C2 5.72597 2.39281 5.3894 2.87469 5.3894H19.1253C19.6072 5.3894 20 5.72597 20 6.1394V12.8894ZM17.75 8.0144C17.75 8.23691 17.684 8.45442 17.5604 8.63942C17.4368 8.82443 17.2611 8.96862 17.0555 9.05377C16.85 9.13892 16.6238 9.1612 16.4055 9.11779C16.1873 9.07438 15.9868 8.96723 15.8295 8.8099C15.6722 8.65257 15.565 8.45211 15.5216 8.23388C15.4782 8.01565 15.5005 7.78945 15.5856 7.58389C15.6708 7.37832 15.815 7.20262 16 7.079C16.185 6.95538 16.4025 6.8894 16.625 6.8894C16.9234 6.8894 17.2095 7.00793 17.4205 7.21891C17.6315 7.42989 17.75 7.71604 17.75 8.0144Z" fill="white"/>
</svg>
