<svg width="27" height="27" viewBox="0 0 27 27" fill="none" xmlns="http://www.w3.org/2000/svg">
  <path d="M26.7075 25.2927L20.4488 19.0352C22.2628 16.8573 23.1674 14.0639 22.9743 11.2361C22.7813 8.40826 21.5054 5.76373 19.4122 3.85263C17.319 1.94152 14.5696 0.910981 11.7359 0.97538C8.90225 1.03978 6.20249 2.19416 4.19827 4.19839C2.19404 6.20262 1.03966 8.90237 0.975258 11.736C0.910859 14.5697 1.9414 17.3191 3.85251 19.4123C5.76361 21.5055 8.40814 22.7814 11.236 22.9745C14.0638 23.1675 16.8572 22.2629 19.035 20.4489L25.2925 26.7077C25.3854 26.8006 25.4958 26.8743 25.6171 26.9246C25.7385 26.9748 25.8686 27.0007 26 27.0007C26.1314 27.0007 26.2615 26.9748 26.3829 26.9246C26.5043 26.8743 26.6146 26.8006 26.7075 26.7077C26.8004 26.6148 26.8741 26.5044 26.9244 26.3831C26.9747 26.2617 27.0006 26.1316 27.0006 26.0002C27.0006 25.8688 26.9747 25.7387 26.9244 25.6173C26.8741 25.4959 26.8004 25.3856 26.7075 25.2927ZM3.00004 12.0002C3.00004 10.2201 3.52788 8.48007 4.51681 7.00003C5.50575 5.51999 6.91135 4.36644 8.55589 3.68525C10.2004 3.00406 12.01 2.82583 13.7559 3.1731C15.5017 3.52036 17.1053 4.37753 18.364 5.6362C19.6227 6.89487 20.4798 8.49852 20.8271 10.2443C21.1744 11.9902 20.9961 13.7998 20.315 15.4443C19.6338 17.0888 18.4802 18.4945 17.0002 19.4834C15.5201 20.4723 13.7801 21.0002 12 21.0002C9.6139 20.9975 7.32626 20.0485 5.639 18.3612C3.95175 16.6739 3.00269 14.3863 3.00004 12.0002Z" fill="white"/>
</svg>

