<svg width="32" height="20" viewBox="0 0 32 20" fill="none" xmlns="http://www.w3.org/2000/svg">
  <path d="M20.5587 18.4537C20.6571 18.6046 20.7129 18.7793 20.7202 18.9593C20.7276 19.1392 20.6862 19.3179 20.6004 19.4763C20.5146 19.6346 20.3876 19.7669 20.2328 19.8591C20.0781 19.9513 19.9013 20 19.7212 20H1.27869C1.09856 20 0.921776 19.9513 0.767024 19.8591C0.612272 19.7669 0.485293 19.6346 0.399504 19.4763C0.313715 19.3179 0.272302 19.1392 0.279639 18.9593C0.286975 18.7793 0.34279 18.6046 0.441187 18.4537C1.84882 16.287 3.9193 14.6335 6.34369 13.74C5.00343 12.8477 3.9859 11.5478 3.44156 10.0326C2.89722 8.51727 2.85496 6.86703 3.32105 5.32587C3.78714 3.78471 4.73681 2.43445 6.02965 1.47478C7.32249 0.515099 8.88984 -0.00305176 10.4999 -0.00305176C12.11 -0.00305176 13.6774 0.515099 14.9702 1.47478C16.2631 2.43445 17.2127 3.78471 17.6788 5.32587C18.1449 6.86703 18.1027 8.51727 17.5583 10.0326C17.014 11.5478 15.9964 12.8477 14.6562 13.74C17.0806 14.6335 19.1511 16.287 20.5587 18.4537ZM31.5474 18.435C30.1394 16.2774 28.0736 14.631 25.6562 13.74C27.2384 12.6742 28.355 11.0455 28.7788 9.18542C29.2025 7.32535 28.9015 5.37372 27.937 3.72777C26.9725 2.08183 25.417 0.865289 23.5871 0.325778C21.7573 -0.213733 19.7906 -0.0356638 18.0874 0.823741C18.0223 0.857368 17.9654 0.904902 17.9207 0.962978C17.8759 1.02105 17.8445 1.08825 17.8287 1.15981C17.8128 1.23137 17.8129 1.30554 17.8289 1.37707C17.8449 1.4486 17.8764 1.51574 17.9212 1.57374C19.1876 3.1535 19.915 5.09729 19.9966 7.12038C20.0783 9.14348 19.51 11.1396 18.3749 12.8162C18.3016 12.9258 18.2745 13.0599 18.2995 13.1894C18.3246 13.3189 18.3997 13.4332 18.5087 13.5075C19.9886 14.5403 21.2554 15.8488 22.2399 17.3612C22.637 17.9693 22.7992 18.7011 22.6962 19.42C22.6846 19.4915 22.6887 19.5647 22.7082 19.6345C22.7276 19.7042 22.7621 19.7689 22.809 19.8241C22.856 19.8793 22.9144 19.9236 22.9801 19.9539C23.0459 19.9843 23.1175 20 23.1899 20H30.7274C30.9476 20.0001 31.1617 19.9274 31.3364 19.7934C31.5111 19.6594 31.6367 19.4714 31.6937 19.2587C31.7285 19.1189 31.7334 18.9732 31.7082 18.8313C31.683 18.6894 31.6282 18.5544 31.5474 18.435Z" fill="#074BCC"/>
</svg>
